<?xml version="1.0" encoding="UTF-8" standalone="no"?>
<svg width="44px" height="44px" viewBox="0 0 44 44" version="1.1" xmlns="http://www.w3.org/2000/svg" xmlns:xlink="http://www.w3.org/1999/xlink" xmlns:sketch="http://www.bohemiancoding.com/sketch/ns">
    <g id="Page-1" stroke="none" stroke-width="1" fill="none" fill-rule="evenodd" sketch:type="MSPage">
        <path d="M22,0 C9.84909804,0 0,9.84909804 0,22 C0,34.150902 9.84909804,44 22,44 C34.1494641,44 44,34.150902 44,22 C44,9.84909804 34.150902,0 22,0 L22,0 Z M22,41.25 C11.3684641,41.25 2.75,32.6315359 2.75,22 C2.75,11.3684641 11.3684641,2.75 22,2.75 C32.6315359,2.75 41.25,11.3684641 41.25,22 C41.25,32.6315359 32.6315359,41.25 22,41.25 L22,41.25 Z M31.2331699,12.766902 C30.709268,12.243 29.8581699,12.243 29.334268,12.766902 L22,20.101098 L14.665732,12.766902 C14.1418301,12.243 13.290732,12.243 12.7668301,12.766902 C12.2429281,13.2908039 12.2429281,14.141902 12.7668301,14.6658039 L20.101098,22 L12.768268,29.334268 C12.244366,29.8581699 12.244366,30.709268 12.768268,31.2331699 C13.2921699,31.757 14.143268,31.757 14.6671699,31.2331699 L22,23.898902 L29.334268,31.2331699 C29.8581699,31.757 30.709268,31.757 31.2331699,31.2331699 C31.757,30.709268 31.757,29.8581699 31.2331699,29.334268 L23.898902,22 L31.2331699,14.665732 C31.757,14.141902 31.757,13.292098 31.2331699,12.766902 L31.2331699,12.766902 Z" id="Shape" fill="#bacae4" sketch:type="MSShapeGroup"></path>
    </g>
</svg>